<svg width="194" height="194" viewBox="0 0 194 194" fill="none" xmlns="http://www.w3.org/2000/svg">
<path d="M122 159.5V153.25L104.844 138.25C102.383 136.086 100.411 133.423 99.0583 130.438C97.7059 127.453 97.0042 124.215 97 120.937V103.25C97 99.9348 98.317 96.7554 100.661 94.4112C103.005 92.067 106.185 90.75 109.5 90.75V90.75C112.815 90.75 115.995 92.067 118.339 94.4112C120.683 96.7554 122 99.9348 122 103.25V109.5" stroke="#E3E3E3" stroke-width="5" stroke-linejoin="round"/>
<path d="M109.5 90.75V78.25C109.5 71.6196 112.134 65.2607 116.822 60.5723C121.511 55.8839 127.87 53.25 134.5 53.25H165.75C172.38 53.25 178.739 55.8839 183.428 60.5723C188.116 65.2607 190.75 71.6196 190.75 78.25V107.969C190.751 116.378 189.096 124.705 185.879 132.474C182.662 140.244 177.946 147.303 172 153.25V153.25V159.5" stroke="#E3E3E3" stroke-width="5" stroke-linejoin="round"/>
<path d="M178.25 159.5H115.75V190.75H178.25V159.5Z" stroke="#E3E3E3" stroke-width="5" stroke-linejoin="round"/>
<path d="M109.5 78.25H190.75" stroke="#E3E3E3" stroke-width="5" stroke-linejoin="round"/>
<path d="M115.75 172H134.5V190.75" stroke="#E3E3E3" stroke-width="5" stroke-linejoin="round"/>
<path d="M72 159.5V153.25L89.1562 138.25C91.6172 136.086 93.5893 133.423 94.9417 130.438C96.2941 127.453 96.9958 124.215 97 120.937V103.25C97 99.9348 95.683 96.7554 93.3388 94.4112C90.9946 92.067 87.8152 90.75 84.5 90.75C81.1848 90.75 78.0054 92.067 75.6612 94.4112C73.317 96.7554 72 99.9348 72 103.25V109.5" stroke="#E3E3E3" stroke-width="5" stroke-linejoin="round"/>
<path d="M84.5 90.75V78.25C84.5 71.6196 81.8661 65.2607 77.1777 60.5723C72.4893 55.8839 66.1304 53.25 59.5 53.25H28.25C21.6196 53.25 15.2607 55.8839 10.5723 60.5723C5.88392 65.2607 3.25 71.6196 3.25 78.25V107.969C3.24887 116.378 4.90413 124.705 8.12127 132.474C11.3384 140.244 16.0544 147.303 22 153.25V159.5" stroke="#E3E3E3" stroke-width="5" stroke-linejoin="round"/>
<path d="M15.75 190.75H78.25V159.5H15.75L15.75 190.75Z" stroke="#E3E3E3" stroke-width="5" stroke-linejoin="round"/>
<path d="M84.5 78.25H3.25" stroke="#E3E3E3" stroke-width="5" stroke-linejoin="round"/>
<path d="M78.25 172H59.5V190.75" stroke="#E3E3E3" stroke-width="5" stroke-linejoin="round"/>
<path d="M72 43.875L56.375 28.25H78.25L68.875 9.5L90.75 18.875L97 3.25L106.375 18.875L122 9.5L115.75 28.25H137.625L122 43.875" stroke="#E3E3E3" stroke-width="5" stroke-linejoin="round"/>
</svg>
