<svg width="194" height="194" viewBox="0 0 194 194" fill="none" xmlns="http://www.w3.org/2000/svg">
<path d="M68.875 128.25H50.125C46.6732 128.25 43.875 131.048 43.875 134.5V184.5C43.875 187.952 46.6732 190.75 50.125 190.75H68.875C72.3268 190.75 75.125 187.952 75.125 184.5V134.5C75.125 131.048 72.3268 128.25 68.875 128.25Z" stroke="#E3E3E3" stroke-width="5" stroke-linejoin="round"/>
<path d="M143.875 128.25H125.125C121.673 128.25 118.875 131.048 118.875 134.5V184.5C118.875 187.952 121.673 190.75 125.125 190.75H143.875C147.327 190.75 150.125 187.952 150.125 184.5V134.5C150.125 131.048 147.327 128.25 143.875 128.25Z" stroke="#E3E3E3" stroke-width="5" stroke-linejoin="round"/>
<path d="M150.125 143.875H162.625V175.125H150.125" stroke="#E3E3E3" stroke-width="5" stroke-linejoin="round"/>
<path d="M162.625 150.125H181.375V168.875H162.625" stroke="#E3E3E3" stroke-width="5" stroke-linejoin="round"/>
<path d="M43.875 143.875H31.375V175.125H43.875" stroke="#E3E3E3" stroke-width="5" stroke-linejoin="round"/>
<path d="M31.375 150.125H12.625V168.875H31.375" stroke="#E3E3E3" stroke-width="5" stroke-linejoin="round"/>
<path d="M75.125 150.125H118.875" stroke="#E3E3E3" stroke-width="5" stroke-linejoin="round"/>
<path d="M75.125 168.875H118.875" stroke="#E3E3E3" stroke-width="5" stroke-linejoin="round"/>
<path d="M15.75 3.25H65.75V28.25H15.75C12.4348 28.25 9.25537 26.933 6.91117 24.5888C4.56696 22.2446 3.25 19.0652 3.25 15.75V15.75C3.25 12.4348 4.56696 9.25537 6.91117 6.91117C9.25537 4.56696 12.4348 3.25 15.75 3.25V3.25Z" stroke="#E3E3E3" stroke-width="5" stroke-linejoin="round"/>
<path d="M65.75 9.5H84.5V22H65.75" stroke="#E3E3E3" stroke-width="5" stroke-linejoin="round"/>
<path d="M175.125 115.75L125.125 115.75V90.75H175.125C178.44 90.75 181.62 92.067 183.964 94.4112C186.308 96.7554 187.625 99.9348 187.625 103.25C187.625 106.565 186.308 109.745 183.964 112.089C181.62 114.433 178.44 115.75 175.125 115.75V115.75Z" stroke="#E3E3E3" stroke-width="5" stroke-linejoin="round"/>
<path d="M125.125 97H106.375V109.5H125.125" stroke="#E3E3E3" stroke-width="5" stroke-linejoin="round"/>
<path d="M84.5 15.75H178.25C181.565 15.75 184.745 17.067 187.089 19.4112C189.433 21.7554 190.75 24.9348 190.75 28.25C190.75 31.5652 189.433 34.7446 187.089 37.0888C184.745 39.433 181.565 40.75 178.25 40.75H12.625C10.1386 40.75 7.75403 41.7377 5.99587 43.4959C4.23772 45.254 3.25 47.6386 3.25 50.125V50.125C3.25 52.6114 4.23772 54.996 5.99587 56.7541C7.75403 58.5123 10.1386 59.5 12.625 59.5H181.375C183.861 59.5 186.246 60.4877 188.004 62.2459C189.762 64.004 190.75 66.3886 190.75 68.875V68.875C190.75 71.3614 189.762 73.746 188.004 75.5041C186.246 77.2623 183.861 78.25 181.375 78.25H15.75C12.4348 78.25 9.25537 79.567 6.91117 81.9112C4.56696 84.2554 3.25 87.4348 3.25 90.75V90.75C3.25 94.0652 4.56696 97.2446 6.91117 99.5888C9.25537 101.933 12.4348 103.25 15.75 103.25H106.375" stroke="#E3E3E3" stroke-width="5" stroke-linejoin="round"/>
</svg>
