<svg width="35" height="35" viewBox="0 0 35 35" fill="none" xmlns="http://www.w3.org/2000/svg">
<path d="M27.7083 0H7.29169C3.26521 0 0 3.26521 0 7.29169V27.7083C0 31.7348 3.26521 35 7.29169 35H27.7083C31.7362 35 35 31.7348 35 27.7083V7.29169C35 3.26521 31.7362 0 27.7083 0ZM23.3333 10.2083H20.5275C19.6306 10.2083 18.9583 10.5758 18.9583 11.5048V13.125H23.3333L22.9862 17.5H18.9583V29.1667H14.5833V17.5H11.6667V13.125H14.5833V10.3206C14.5833 7.37184 16.135 5.83333 19.6306 5.83333H23.3333V10.2083Z" fill="#E3E3E3"/>
</svg>
