<svg width="150" height="150" viewBox="0 0 150 150" fill="none" xmlns="http://www.w3.org/2000/svg">
<path d="M114.844 23.4375C117.952 23.4375 120.932 24.6722 123.13 26.8698C125.328 29.0675 126.562 32.0482 126.562 35.1562V51.5625H103.125V35.1562C103.125 32.0482 104.36 29.0675 106.557 26.8698C108.755 24.6722 111.736 23.4375 114.844 23.4375Z" stroke="#E3E3E3" stroke-width="3" stroke-linejoin="round"/>
<path d="M107.812 4.6875C112.311 9.18909 114.84 15.2919 114.844 21.6562V21.6562C114.847 15.2919 117.376 9.18909 121.875 4.6875V4.6875" stroke="#E3E3E3" stroke-width="3" stroke-linejoin="round"/>
<path d="M103.125 32.8125H114.844" stroke="#E3E3E3" stroke-width="3" stroke-linejoin="round"/>
<path d="M126.562 42.1875H114.844" stroke="#E3E3E3" stroke-width="3" stroke-linejoin="round"/>
<path d="M18.75 84.8906V51.5625H131.25V84.7734" stroke="#E3E3E3" stroke-width="3" stroke-linejoin="round"/>
<path d="M23.4375 51.5625C23.4375 45.9681 25.6599 40.6028 29.6157 36.647C33.5716 32.6911 38.9368 30.4688 44.5312 30.4688C50.1257 30.4688 55.4909 32.6911 59.4468 36.647C63.4026 40.6028 65.625 45.9681 65.625 51.5625" stroke="#E3E3E3" stroke-width="3" stroke-linejoin="round"/>
<path d="M103.125 45.7965C102.311 45.3367 101.435 44.9972 100.523 44.7887C100.052 42.7219 98.8935 40.8759 97.2376 39.5521C95.5818 38.2283 93.5262 37.5048 91.4062 37.4996C90.9903 37.5154 90.5756 37.5545 90.164 37.6168C89.3431 36.1851 88.1587 34.9955 86.7307 34.1682C85.3027 33.3409 83.6816 32.9053 82.0312 32.9053C80.3809 32.9053 78.7597 33.3409 77.3317 34.1682C75.9037 34.9955 74.7194 36.1851 73.8984 37.6168C73.4869 37.5545 73.0721 37.5154 72.6562 37.4996C71.0122 37.5013 69.3975 37.9353 67.9742 38.758C66.5508 39.5808 65.3689 40.7633 64.5468 42.1871" stroke="#E3E3E3" stroke-width="3" stroke-linejoin="round"/>
<path d="M93.75 60.9375H56.25V70.3125H93.75V60.9375Z" stroke="#E3E3E3" stroke-width="3" stroke-linejoin="round"/>
<path d="M145.312 135.938H4.6875V145.312H145.312V135.938Z" stroke="#E3E3E3" stroke-width="3" stroke-linejoin="round"/>
<path d="M42.1875 91.7344C42.1875 91.7344 42.1875 91.5234 42.1875 91.4062C42.1863 90.2566 41.9032 89.1247 41.363 88.1099C40.8229 87.095 40.0421 86.228 39.0891 85.585C38.136 84.9419 37.0399 84.5424 35.8966 84.4213C34.7533 84.3003 33.5978 84.4614 32.5312 84.8906C32.1052 83.4301 31.2171 82.1472 30 81.2344C28.7829 80.3216 27.3026 79.8281 25.7812 79.8281C24.2599 79.8281 22.7796 80.3216 21.5625 81.2344C20.3454 82.1472 19.4572 83.4301 19.0312 84.8906C17.9647 84.4614 16.8091 84.3003 15.6659 84.4213C14.5226 84.5424 13.4264 84.9419 12.4734 85.585C11.5204 86.228 10.7396 87.095 10.1994 88.1099C9.65924 89.1247 9.37616 90.2566 9.37498 91.4062C9.37498 91.4062 9.37498 91.6172 9.37498 91.7344C7.19186 92.327 5.29664 93.689 4.03886 95.5693C2.78108 97.4495 2.24556 99.7211 2.53106 101.965C2.81656 104.209 3.90383 106.274 5.59235 107.78C7.28087 109.285 9.45676 110.129 11.7187 110.156C13.5925 110.164 15.424 109.6 16.9687 108.539C17.6256 110.349 18.8238 111.913 20.4005 113.018C21.9772 114.123 23.8559 114.716 25.7812 114.716C27.7066 114.716 29.5853 114.123 31.162 113.018C32.7386 111.913 33.9368 110.349 34.5937 108.539C36.1385 109.6 37.97 110.164 39.8437 110.156C42.1057 110.129 44.2816 109.285 45.9701 107.78C47.6586 106.274 48.7459 104.209 49.0314 101.965C49.3169 99.7211 48.7814 97.4495 47.5236 95.5693C46.2658 93.689 44.3706 92.327 42.1875 91.7344Z" stroke="#E3E3E3" stroke-width="3" stroke-linejoin="round"/>
<path d="M16.4062 107.812L18.75 116.367C20.2779 121.567 21.0669 126.956 21.0938 132.375V135.938H30.4688V132.375C30.4956 126.956 31.2846 121.567 32.8125 116.367L35.1562 107.812" stroke="#E3E3E3" stroke-width="3" stroke-linejoin="round"/>
<path d="M89.0625 91.7344C89.0625 91.7344 89.0625 91.5234 89.0625 91.4062C89.0613 90.2566 88.7782 89.1247 88.2381 88.1099C87.6979 87.095 86.9171 86.228 85.9641 85.585C85.0111 84.9419 83.9149 84.5424 82.7716 84.4213C81.6283 84.3003 80.4728 84.4614 79.4062 84.8906C78.9803 83.4301 78.0921 82.1472 76.875 81.2344C75.6579 80.3216 74.1776 79.8281 72.6562 79.8281C71.1349 79.8281 69.6546 80.3216 68.4375 81.2344C67.2204 82.1472 66.3322 83.4301 65.9062 84.8906C64.8397 84.4614 63.6842 84.3003 62.5409 84.4213C61.3976 84.5424 60.3014 84.9419 59.3484 85.585C58.3954 86.228 57.6146 87.095 57.0744 88.1099C56.5343 89.1247 56.2512 90.2566 56.25 91.4062C56.25 91.4062 56.25 91.6172 56.25 91.7344C54.0669 92.327 52.1717 93.689 50.9139 95.5693C49.6561 97.4495 49.1206 99.7211 49.4061 101.965C49.6916 104.209 50.7788 106.274 52.4674 107.78C54.1559 109.285 56.3318 110.129 58.5937 110.156C60.4675 110.164 62.299 109.6 63.8437 108.539C64.5006 110.349 65.6988 111.913 67.2755 113.018C68.8522 114.123 70.7309 114.716 72.6562 114.716C74.5816 114.716 76.4603 114.123 78.037 113.018C79.6137 111.913 80.8119 110.349 81.4687 108.539C83.0135 109.6 84.845 110.164 86.7187 110.156C88.9807 110.129 91.1566 109.285 92.8451 107.78C94.5336 106.274 95.6209 104.209 95.9064 101.965C96.1919 99.7211 95.6564 97.4495 94.3986 95.5693C93.1408 93.689 91.2456 92.327 89.0625 91.7344Z" stroke="#E3E3E3" stroke-width="3" stroke-linejoin="round"/>
<path d="M63.2812 107.812L64.7578 112.945C66.8898 120.423 67.9705 128.162 67.9688 135.938H77.3438C77.342 128.162 78.4227 120.423 80.5547 112.945L82.0312 107.812" stroke="#E3E3E3" stroke-width="3" stroke-linejoin="round"/>
<path d="M135.937 91.7344C135.937 91.7344 135.937 91.5234 135.937 91.4062C135.936 90.2566 135.653 89.1247 135.113 88.1099C134.573 87.095 133.792 86.228 132.839 85.585C131.886 84.9419 130.79 84.5424 129.647 84.4213C128.503 84.3003 127.348 84.4614 126.281 84.8906C125.855 83.4301 124.967 82.1472 123.75 81.2344C122.533 80.3216 121.053 79.8281 119.531 79.8281C118.01 79.8281 116.53 80.3216 115.312 81.2344C114.095 82.1472 113.207 83.4301 112.781 84.8906C111.715 84.4614 110.559 84.3003 109.416 84.4213C108.273 84.5424 107.176 84.9419 106.223 85.585C105.27 86.228 104.49 87.095 103.949 88.1099C103.409 89.1247 103.126 90.2566 103.125 91.4062C103.125 91.4062 103.125 91.6172 103.125 91.7344C100.942 92.327 99.0467 93.689 97.7889 95.5693C96.5311 97.4495 95.9956 99.7211 96.2811 101.965C96.5666 104.209 97.6538 106.274 99.3424 107.78C101.031 109.285 103.207 110.129 105.469 110.156C107.342 110.164 109.174 109.6 110.719 108.539C111.376 110.349 112.574 111.913 114.151 113.018C115.727 114.123 117.606 114.716 119.531 114.716C121.457 114.716 123.335 114.123 124.912 113.018C126.489 111.913 127.687 110.349 128.344 108.539C129.889 109.6 131.72 110.164 133.594 110.156C135.856 110.129 138.032 109.285 139.72 107.78C141.409 106.274 142.496 104.209 142.781 101.965C143.067 99.7211 142.531 97.4495 141.274 95.5693C140.016 93.689 138.121 92.327 135.937 91.7344Z" stroke="#E3E3E3" stroke-width="3" stroke-linejoin="round"/>
<path d="M110.156 107.812L111.633 112.945C113.765 120.423 114.846 128.162 114.844 135.938H124.219C124.217 128.162 125.298 120.423 127.43 112.945L128.906 107.812" stroke="#E3E3E3" stroke-width="3" stroke-linejoin="round"/>
<path d="M44.5312 30.4688V51.5625" stroke="#E3E3E3" stroke-width="3" stroke-linejoin="round"/>
<path d="M35.1562 32.8125V51.5625" stroke="#E3E3E3" stroke-width="3" stroke-linejoin="round"/>
<path d="M39.8438 30.4688V11.7188H49.2188V30.4688" stroke="#E3E3E3" stroke-width="3" stroke-linejoin="round"/>
<path d="M53.9062 32.8125V51.5625" stroke="#E3E3E3" stroke-width="3" stroke-linejoin="round"/>
<path d="M49.2188 23.4375L56.25 16.4062L63.2812 23.4375L53.9062 32.8125" stroke="#E3E3E3" stroke-width="3" stroke-linejoin="round"/>
<path d="M39.8438 23.4375L32.8125 16.4062L25.7812 23.4375L35.1562 32.8125" stroke="#E3E3E3" stroke-width="3" stroke-linejoin="round"/>
</svg>
