<svg width="150" height="150" viewBox="0 0 150 150" fill="none" xmlns="http://www.w3.org/2000/svg">
<path d="M102.062 67.9688L105.789 64.2422C107.911 62.1263 110.785 60.9379 113.781 60.9375V60.9375C116.778 60.9379 119.652 62.1263 121.773 64.2422L122.195 64.6641C124.311 66.7858 125.5 69.6598 125.5 72.6562V72.6562C125.491 75.6129 124.86 78.5346 123.649 81.2318C122.437 83.929 120.673 86.3414 118.469 88.3125L102.062 103.125L85.6562 88.3125C83.4524 86.3414 81.6876 83.929 80.4763 81.2318C79.265 78.5346 78.6343 75.6129 78.625 72.6562V72.6562C78.6254 69.6598 79.8138 66.7858 81.9297 64.6641L82.3516 64.2422C84.4733 62.1263 87.3473 60.9379 90.3438 60.9375V60.9375C93.3402 60.9379 96.2142 62.1263 98.3359 64.2422L102.062 67.9688Z" stroke="#E3E3E3" stroke-width="3" stroke-linecap="round" stroke-linejoin="round"/>
<path d="M111.438 94.6875V135.938C111.438 138.424 110.45 140.808 108.692 142.567C106.933 144.325 104.549 145.312 102.062 145.312H45.8125C43.3261 145.312 40.9415 144.325 39.1834 142.567C37.4252 140.808 36.4375 138.424 36.4375 135.938V14.0625C36.4375 11.5761 37.4252 9.19153 39.1834 7.43337C40.9415 5.67522 43.3261 4.6875 45.8125 4.6875H102.062C104.549 4.6875 106.933 5.67522 108.692 7.43337C110.45 9.19153 111.438 11.5761 111.438 14.0625V60.9375" stroke="#E3E3E3" stroke-width="3" stroke-linejoin="round"/>
<path d="M43.4688 4.6875L57.5312 18.75H90.3438L104.406 4.6875" stroke="#E3E3E3" stroke-width="3" stroke-linejoin="round"/>
<path d="M50.5 145.312V140.625C50.5 139.382 50.9939 138.19 51.8729 137.31C52.752 136.431 53.9443 135.938 55.1875 135.938H92.6875C93.9307 135.938 95.123 136.431 96.0021 137.31C96.8811 138.19 97.375 139.382 97.375 140.625V145.312" stroke="#E3E3E3" stroke-width="3" stroke-linejoin="round"/>
<path d="M64.5625 82.0312H88L92.6875 72.6562L104.406 89.0625L109.094 82.0312H139.562" stroke="#E3E3E3" stroke-width="3" stroke-linejoin="round"/>
<path d="M102.062 110.156V126.562H45.8125V28.125H102.062V56.25" stroke="#E3E3E3" stroke-width="3" stroke-linejoin="round"/>
<path d="M92.6875 37.5H55.1875V51.5625H92.6875V37.5Z" stroke="#E3E3E3" stroke-width="3" stroke-linejoin="round"/>
<path d="M52.8438 117.188H95.0312" stroke="#E3E3E3" stroke-width="3" stroke-linejoin="round"/>
<path d="M52.8438 107.812H95.0312" stroke="#E3E3E3" stroke-width="3" stroke-linejoin="round"/>
<path d="M64.5625 37.5V51.5625" stroke="#E3E3E3" stroke-width="3" stroke-linejoin="round"/>
<path d="M73.9375 37.5V51.5625" stroke="#E3E3E3" stroke-width="3" stroke-linejoin="round"/>
<path d="M83.3125 37.5V51.5625" stroke="#E3E3E3" stroke-width="3" stroke-linejoin="round"/>
</svg>
