<svg width="150" height="150" viewBox="0 0 150 150" fill="none" xmlns="http://www.w3.org/2000/svg">
<path d="M79.6875 37.5V23.4375C79.6875 19.7079 78.2059 16.131 75.5687 13.4938C72.9315 10.8566 69.3546 9.375 65.625 9.375H56.25V18.75H65.625C66.8682 18.75 68.0605 19.2439 68.9396 20.1229C69.8186 21.002 70.3125 22.1943 70.3125 23.4375V37.5" stroke="#E3E3E3" stroke-width="3" stroke-linejoin="round"/>
<path d="M60.9375 63.1406C55.7825 67.7563 49.1069 70.3097 42.1875 70.3125C34.7283 70.3125 27.5746 67.3493 22.3001 62.0749C17.0257 56.8004 14.0625 49.6467 14.0625 42.1875V23.4375C14.0625 22.1943 14.5564 21.002 15.4354 20.1229C16.3145 19.2439 17.5068 18.75 18.75 18.75H28.125V9.375H18.75C15.0204 9.375 11.4435 10.8566 8.80631 13.4938C6.16908 16.131 4.6875 19.7079 4.6875 23.4375V42.1875C4.6875 52.1331 8.63838 61.6714 15.671 68.704C22.7036 75.7366 32.2419 79.6875 42.1875 79.6875C48.7702 79.6967 55.2385 77.9664 60.9375 74.6719" stroke="#E3E3E3" stroke-width="3" stroke-linejoin="round"/>
<path d="M37.5 4.6875H28.125V23.4375H37.5V4.6875Z" stroke="#E3E3E3" stroke-width="3" stroke-linejoin="round"/>
<path d="M56.25 4.6875H46.875V23.4375H56.25V4.6875Z" stroke="#E3E3E3" stroke-width="3" stroke-linejoin="round"/>
<path d="M145.312 37.5H60.9375V145.312H145.312V37.5Z" stroke="#E3E3E3" stroke-width="3" stroke-linejoin="round"/>
<path d="M135.938 46.875H70.3125V70.3125H135.938V46.875Z" stroke="#E3E3E3" stroke-width="3" stroke-linejoin="round"/>
<path d="M105.469 107.812H135.938V135.938H70.3125V114.844" stroke="#E3E3E3" stroke-width="3" stroke-linejoin="round"/>
<path d="M67.9688 79.6875H138.281" stroke="#E3E3E3" stroke-width="3" stroke-linejoin="round"/>
<path d="M67.9688 89.0625H138.281" stroke="#E3E3E3" stroke-width="3" stroke-linejoin="round"/>
<path d="M42.1875 79.6875V131.25C42.1875 132.493 42.6814 133.685 43.5604 134.565C44.4395 135.444 45.6318 135.938 46.875 135.938C48.1182 135.938 49.3105 135.444 50.1896 134.565C51.0686 133.685 51.5625 132.493 51.5625 131.25V112.5C51.5625 111.257 52.0564 110.065 52.9354 109.185C53.8145 108.306 55.0068 107.812 56.25 107.812H79.6875" stroke="#E3E3E3" stroke-width="3" stroke-linejoin="round"/>
<path d="M89.0625 117.188C94.2402 117.188 98.4375 112.99 98.4375 107.812C98.4375 102.635 94.2402 98.4375 89.0625 98.4375C83.8848 98.4375 79.6875 102.635 79.6875 107.812C79.6875 112.99 83.8848 117.188 89.0625 117.188Z" stroke="#E3E3E3" stroke-width="3" stroke-linejoin="round"/>
</svg>
