<svg width="35" height="35" viewBox="0 0 35 35" fill="none" xmlns="http://www.w3.org/2000/svg">
<path d="M22.2148 8.00331C20.9854 7.94794 20.615 7.93625 17.5 7.93625C14.385 7.93625 14.016 7.94794 12.7867 8.00331C9.62206 8.14772 8.14772 9.64684 8.00478 12.7852C7.94794 14.016 7.93478 14.385 7.93478 17.5C7.93478 20.615 7.94794 20.984 8.00331 22.2148C8.14772 25.3473 9.61625 26.8523 12.7852 26.9967C14.0146 27.0521 14.385 27.0652 17.5 27.0652C20.6165 27.0652 20.9854 27.0535 22.2148 26.9981C25.3793 26.8537 26.8523 25.3517 26.9967 22.2162C27.0521 20.9854 27.0637 20.6165 27.0637 17.5015C27.0637 14.3865 27.0521 14.0175 26.9967 12.7881C26.8523 9.64831 25.3765 8.14772 22.2148 8.00331ZM17.5 23.4908C14.191 23.4908 11.5092 20.809 11.5092 17.5C11.5092 14.191 14.1925 11.5092 17.5 11.5092C20.8075 11.5092 23.4908 14.191 23.4908 17.5C23.4908 20.809 20.809 23.4908 17.5 23.4908ZM23.7285 12.6729C22.9556 12.6729 22.3285 12.0458 22.3285 11.2729C22.3285 10.5 22.9556 9.87294 23.7285 9.87294C24.5015 9.87294 25.1285 10.5 25.1285 11.2729C25.1285 12.0458 24.5015 12.6729 23.7285 12.6729ZM21.3893 17.5C21.3893 19.6481 19.6481 21.3893 17.5 21.3893C15.3518 21.3893 13.6106 19.6481 13.6106 17.5C13.6106 15.3518 15.3518 13.6106 17.5 13.6106C19.6481 13.6106 21.3893 15.3518 21.3893 17.5ZM27.7083 0H7.29169C3.26521 0 0 3.26521 0 7.29169V27.7083C0 31.7348 3.26521 35 7.29169 35H27.7083C31.7362 35 35 31.7348 35 27.7083V7.29169C35 3.26521 31.7362 0 27.7083 0ZM29.0967 22.3096C28.9042 26.5518 26.5431 28.9027 22.311 29.0967C21.0656 29.1535 20.669 29.1667 17.5 29.1667C14.331 29.1667 13.9358 29.1535 12.6904 29.0967C8.44956 28.9027 6.09875 26.5475 5.90333 22.3096C5.84646 21.0656 5.83333 20.669 5.83333 17.5C5.83333 14.3325 5.84646 13.9343 5.90333 12.6904C6.09875 8.44956 8.4525 6.09729 12.6904 5.90479C13.9358 5.84646 14.331 5.83333 17.5 5.83333C20.669 5.83333 21.0656 5.84646 22.311 5.90333C26.5518 6.09729 28.9071 8.45691 29.0967 12.689C29.1535 13.9343 29.1667 14.3325 29.1667 17.5C29.1667 20.669 29.1535 21.0656 29.0967 22.3096Z" fill="#E3E3E3"/>
</svg>
