<svg width="30" height="30" viewBox="0 0 30 30" fill="none" xmlns="http://www.w3.org/2000/svg">
<path d="M19.0412 6.85998C17.9875 6.81252 17.67 6.8025 15 6.8025C12.33 6.8025 12.0137 6.81252 10.96 6.85998C8.24748 6.98376 6.98376 8.26872 6.86124 10.9588C6.81252 12.0137 6.80124 12.33 6.80124 15C6.80124 17.67 6.81252 17.9863 6.85998 19.0412C6.98376 21.7262 8.2425 23.0162 10.9588 23.14C12.0125 23.1875 12.33 23.1988 15 23.1988C17.6713 23.1988 17.9875 23.1887 19.0412 23.1412C21.7537 23.0175 23.0162 21.73 23.14 19.0425C23.1875 17.9875 23.1975 17.6713 23.1975 15.0013C23.1975 12.3313 23.1875 12.015 23.14 10.9612C23.0162 8.26998 21.7513 6.98376 19.0412 6.85998ZM15 20.135C12.1637 20.135 9.86502 17.8363 9.86502 15C9.86502 12.1637 12.165 9.86502 15 9.86502C17.835 9.86502 20.135 12.1637 20.135 15C20.135 17.8363 17.8363 20.135 15 20.135ZM20.3387 10.8625C19.6762 10.8625 19.1387 10.325 19.1387 9.66252C19.1387 9 19.6762 8.46252 20.3387 8.46252C21.0013 8.46252 21.5387 9 21.5387 9.66252C21.5387 10.325 21.0013 10.8625 20.3387 10.8625ZM18.3337 15C18.3337 16.8412 16.8412 18.3337 15 18.3337C13.1587 18.3337 11.6662 16.8412 11.6662 15C11.6662 13.1587 13.1587 11.6662 15 11.6662C16.8412 11.6662 18.3337 13.1587 18.3337 15ZM23.75 0H6.25002C2.79875 0 0 2.79875 0 6.25002V23.75C0 27.2012 2.79875 30 6.25002 30H23.75C27.2025 30 30 27.2012 30 23.75V6.25002C30 2.79875 27.2025 0 23.75 0ZM24.94 19.1225C24.775 22.7587 22.7512 24.7738 19.1237 24.94C18.0562 24.9887 17.7163 25 15 25C12.2837 25 11.945 24.9887 10.8775 24.94C7.24248 24.7738 5.2275 22.755 5.06 19.1225C5.01125 18.0562 5 17.7163 5 15C5 12.285 5.01125 11.9437 5.06 10.8775C5.2275 7.24248 7.245 5.22625 10.8775 5.06125C11.945 5.01125 12.2837 5 15 5C17.7163 5 18.0562 5.01125 19.1237 5.06C22.7587 5.22625 24.7775 7.24878 24.94 10.8763C24.9887 11.9437 25 12.285 25 15C25 17.7163 24.9887 18.0562 24.94 19.1225Z" fill="#E3E3E3"/>
</svg>
