<svg width="194" height="194" viewBox="0 0 194 194" fill="none" xmlns="http://www.w3.org/2000/svg">
<path d="M28.25 190.75H47C50.4518 190.75 53.25 187.952 53.25 184.5L53.25 128.25C53.25 124.798 50.4518 122 47 122H28.25C24.7982 122 22 124.798 22 128.25L22 184.5C22 187.952 24.7982 190.75 28.25 190.75Z" stroke="#E3E3E3" stroke-width="5" stroke-linejoin="round"/>
<path d="M22 184.5H9.5C7.8424 184.5 6.25268 183.842 5.08058 182.669C3.90848 181.497 3.25 179.908 3.25 178.25L3.25 134.5C3.25 132.842 3.90848 131.253 5.08058 130.081C6.25268 128.908 7.8424 128.25 9.5 128.25H22L22 184.5Z" stroke="#E3E3E3" stroke-width="5" stroke-linejoin="round"/>
<path d="M165.75 122H147C143.548 122 140.75 124.798 140.75 128.25V184.5C140.75 187.952 143.548 190.75 147 190.75H165.75C169.202 190.75 172 187.952 172 184.5V128.25C172 124.798 169.202 122 165.75 122Z" stroke="#E3E3E3" stroke-width="5" stroke-linejoin="round"/>
<path d="M172 128.25H184.5C186.158 128.25 187.747 128.908 188.919 130.081C190.092 131.253 190.75 132.842 190.75 134.5V178.25C190.75 179.908 190.092 181.497 188.919 182.669C187.747 183.842 186.158 184.5 184.5 184.5H172V128.25Z" stroke="#E3E3E3" stroke-width="5" stroke-linejoin="round"/>
<path d="M140.75 143.875H53.25V168.875H140.75V143.875Z" stroke="#E3E3E3" stroke-width="5" stroke-linejoin="round"/>
<path d="M43.875 109.5H62.625C66.0768 109.5 68.875 106.702 68.875 103.25V59.5C68.875 56.0482 66.0768 53.25 62.625 53.25H43.875C40.4232 53.25 37.625 56.0482 37.625 59.5L37.625 103.25C37.625 106.702 40.4232 109.5 43.875 109.5Z" stroke="#E3E3E3" stroke-width="5" stroke-linejoin="round"/>
<path d="M37.625 103.25H25.125C23.4674 103.25 21.8777 102.592 20.7056 101.419C19.5335 100.247 18.875 98.6576 18.875 97L18.875 65.75C18.875 64.0924 19.5335 62.5027 20.7056 61.3306C21.8777 60.1585 23.4674 59.5 25.125 59.5H37.625L37.625 103.25Z" stroke="#E3E3E3" stroke-width="5" stroke-linejoin="round"/>
<path d="M153.25 53.25H134.5C131.048 53.25 128.25 56.0482 128.25 59.5V103.25C128.25 106.702 131.048 109.5 134.5 109.5H153.25C156.702 109.5 159.5 106.702 159.5 103.25V59.5C159.5 56.0482 156.702 53.25 153.25 53.25Z" stroke="#E3E3E3" stroke-width="5" stroke-linejoin="round"/>
<path d="M159.5 59.5H172C173.658 59.5 175.247 60.1585 176.419 61.3306C177.592 62.5027 178.25 64.0924 178.25 65.75V97C178.25 98.6576 177.592 100.247 176.419 101.419C175.247 102.592 173.658 103.25 172 103.25H159.5V59.5Z" stroke="#E3E3E3" stroke-width="5" stroke-linejoin="round"/>
<path d="M128.25 72H68.875V90.75H128.25V72Z" stroke="#E3E3E3" stroke-width="5" stroke-linejoin="round"/>
<path d="M72 43.875L56.375 28.25H78.25L68.875 9.5L90.75 18.875L97 3.25L106.375 18.875L122 9.5L115.75 28.25H137.625L122 43.875" stroke="#E3E3E3" stroke-width="5" stroke-linejoin="round"/>
</svg>
