<svg width="35" height="35" viewBox="0 0 35 35" fill="none" xmlns="http://www.w3.org/2000/svg">
<path d="M27.7083 0H7.29169C3.26521 0 0 3.26521 0 7.29169V27.7083C0 31.7348 3.26521 35 7.29169 35H27.7083C31.7362 35 35 31.7348 35 27.7083V7.29169C35 3.26521 31.7362 0 27.7083 0ZM27.5056 13.4707C27.8104 20.2037 22.7893 27.7113 13.8993 27.7113C11.1956 27.7113 8.68 26.9193 6.56104 25.5602C9.10147 25.8592 11.636 25.1548 13.6485 23.5783C11.5529 23.539 9.78544 22.155 9.17728 20.2533C9.92831 20.3962 10.6663 20.354 11.3385 20.1717C9.03581 19.7093 7.44772 17.6356 7.49875 15.4175C8.14331 15.7762 8.88272 15.9921 9.66581 16.0168C7.53522 14.5921 6.93146 11.7775 8.18419 9.625C10.5452 12.5212 14.0729 14.4273 18.0513 14.6271C17.3527 11.6331 19.6262 8.75 22.7165 8.75C24.0917 8.75 25.3371 9.33044 26.2092 10.2623C27.3 10.0479 28.3252 9.64978 29.2512 9.10147C28.8925 10.22 28.1342 11.1577 27.1468 11.7498C28.1152 11.6331 29.0383 11.3765 29.8958 10.9958C29.2556 11.9525 28.4433 12.7954 27.5056 13.4707Z" fill="#E3E3E3"/>
</svg>
