<svg width="30" height="30" viewBox="0 0 30 30" fill="none" xmlns="http://www.w3.org/2000/svg">
<path d="M23.75 0H6.25002C2.79875 0 0 2.79875 0 6.25002V23.75C0 27.2012 2.79875 30 6.25002 30H23.75C27.2025 30 30 27.2012 30 23.75V6.25002C30 2.79875 27.2025 0 23.75 0ZM23.5762 11.5463C23.8375 17.3175 19.5337 23.7525 11.9137 23.7525C9.59622 23.7525 7.44 23.0737 5.62375 21.9088C7.80126 22.165 9.97374 21.5612 11.6987 20.21C9.90252 20.1763 8.38752 18.99 7.86624 17.36C8.50998 17.4825 9.1425 17.4463 9.71874 17.29C7.74498 16.8937 6.38376 15.1162 6.4275 13.215C6.97998 13.5225 7.61376 13.7075 8.28498 13.7287C6.45876 12.5075 5.94125 10.095 7.01502 8.25C9.03876 10.7325 12.0625 12.3662 15.4725 12.5375C14.8738 9.97122 16.8225 7.5 19.4713 7.5C20.65 7.5 21.7175 7.99752 22.465 8.79624C23.4 8.61252 24.2788 8.27124 25.0725 7.80126C24.765 8.76 24.115 9.56376 23.2687 10.0712C24.0988 9.97122 24.89 9.75126 25.625 9.42498C25.0762 10.245 24.38 10.9675 23.5762 11.5463Z" fill="#E3E3E3"/>
</svg>
